<svg width="30" height="30" fill="none" xmlns="http://www.w3.org/2000/svg"><path d="M20.594 4.187a5.485 5.485 0 015.469 5.47v10.937a5.485 5.485 0 01-5.47 5.469H9.657a5.485 5.485 0 01-5.469-5.47V9.657a5.486 5.486 0 015.47-5.469h10.937zm0-2.187H9.656C5.446 2 2 5.445 2 9.656v10.938c0 4.21 3.445 7.656 7.656 7.656h10.938c4.21 0 7.656-3.445 7.656-7.656V9.656C28.25 5.446 24.805 2 20.594 2z" fill="#000"/><path d="M22.234 9.656a1.64 1.64 0 110-3.281 1.64 1.64 0 010 3.281zm-7.109 1.094a4.375 4.375 0 110 8.75 4.375 4.375 0 010-8.75zm0-2.188a6.562 6.562 0 100 13.125 6.562 6.562 0 000-13.125z" fill="#000"/></svg>