<svg width="12" height="12" fill="none" xmlns="http://www.w3.org/2000/svg"><path d="M9.615 12c-.523 0-1.257-.19-2.357-.804-1.338-.75-2.373-1.442-3.703-2.769-1.283-1.282-1.907-2.111-2.78-3.7C-.214 2.93-.046 1.99.143 1.588c.224-.48.554-.768.982-1.054a4.723 4.723 0 01.84-.44c.133-.059.334-.15.589-.053.17.064.321.195.559.429C3.6.95 4.266 2.02 4.51 2.545c.165.354.274.587.274.85 0 .306-.154.543-.341.798l-.104.138c-.204.268-.249.345-.22.484.06.277.506 1.104 1.238 1.835.732.73 1.536 1.147 1.815 1.207.144.03.223-.016.5-.227l.122-.093c.286-.212.511-.363.81-.363h.003c.26 0 .483.113.853.3.482.243 1.584.9 2.067 1.387.235.237.366.388.43.557.096.256.005.456-.054.59l-.032.073c-.113.267-.25.524-.41.766-.285.426-.573.755-1.055.98a1.807 1.807 0 01-.792.173z" fill="#000"/></svg>