<svg width="34" height="20" fill="none" xmlns="http://www.w3.org/2000/svg"><path fill-rule="evenodd" clip-rule="evenodd" d="M33.2 1.389c.252-.783 0-1.353-1.116-1.353h-3.71c-.935 0-1.367.499-1.62 1.032 0 0-1.908 4.556-4.573 7.51-.864.853-1.26 1.138-1.728 1.138-.252 0-.576-.285-.576-1.067V1.352c0-.925-.288-1.352-1.08-1.352h-5.835c-.576 0-.936.427-.936.854 0 .89 1.332 1.104 1.476 3.595V9.86c0 1.174-.212 1.389-.684 1.389-1.26 0-4.32-4.591-6.157-9.822C6.304.392 5.941 0 5.005 0H1.26C.18 0 0 .498 0 1.032c0 .961 1.26 5.8 5.87 12.206 3.06 4.375 7.417 6.727 11.342 6.727 2.377 0 2.665-.534 2.665-1.424v-3.31c0-1.067.216-1.245.972-1.245.54 0 1.512.284 3.709 2.384 2.52 2.491 2.952 3.63 4.357 3.63h3.709c1.08 0 1.584-.534 1.296-1.566-.324-1.032-1.548-2.526-3.133-4.306-.864-.995-2.16-2.099-2.556-2.633-.54-.712-.396-.996 0-1.637-.037 0 4.501-6.334 4.969-8.472" fill="#000"/></svg>